M48
; DRILL file {KiCad 9.0.5} date 2026-05-25T17:24:23-0300
; FORMAT={-:-/ absolute / metric / decimal}
; #@! TF.CreationDate,2026-05-25T17:24:23-03:00
; #@! TF.GenerationSoftware,Kicad,Pcbnew,9.0.5
; #@! TF.FileFunction,Plated,1,2,PTH
FMAT,2
METRIC
; #@! TA.AperFunction,Plated,PTH,ComponentDrill
T1C0.800
; #@! TA.AperFunction,Plated,PTH,ComponentDrill
T2C0.900
; #@! TA.AperFunction,Plated,PTH,ComponentDrill
T3C1.000
; #@! TA.AperFunction,Plated,PTH,ComponentDrill
T4C1.016
%
G90
G05
T1
X139.5Y-81.0
X139.5Y-85.0
X149.66Y-81.0
X149.66Y-85.0
T2
X159.25Y-81.0
X159.25Y-83.54
X159.25Y-88.21
X159.25Y-90.75
T3
X106.97Y-62.03
X106.97Y-64.57
X106.97Y-67.11
X106.97Y-69.65
X106.97Y-72.19
X106.97Y-74.73
X106.97Y-77.27
X106.97Y-79.81
X106.97Y-82.35
X106.97Y-84.89
X106.97Y-87.43
X106.97Y-89.97
X106.97Y-92.51
X106.97Y-95.05
X106.97Y-97.59
X106.97Y-100.13
X106.97Y-102.67
X106.97Y-105.21
X106.97Y-107.75
X106.97Y-110.29
X124.75Y-62.03
X124.75Y-64.57
X124.75Y-67.11
X124.75Y-69.65
X124.75Y-72.19
X124.75Y-74.73
X124.75Y-77.27
X124.75Y-79.81
X124.75Y-82.35
X124.75Y-84.89
X124.75Y-87.43
X124.75Y-89.97
X124.75Y-92.51
X124.75Y-95.05
X124.75Y-97.59
X124.75Y-100.13
X124.75Y-102.67
X124.75Y-105.21
X124.75Y-107.75
X124.75Y-110.29
X136.11Y-57.25
X136.11Y-75.03
X147.225Y-130.21
X147.225Y-132.75
X147.25Y-115.5
X147.25Y-118.04
X147.25Y-120.58
X147.25Y-123.12
X147.25Y-125.66
X147.5Y-96.0
X147.5Y-98.54
X147.5Y-101.08
X147.5Y-103.62
X176.75Y-57.25
X176.75Y-75.03
X182.46Y-85.5
X185.0Y-85.5
X187.54Y-85.5
X191.5Y-57.28
X191.5Y-59.82
T4
X110.34Y-120.5
X110.34Y-123.04
X110.34Y-125.58
X110.34Y-128.12
X110.34Y-130.66
X110.34Y-133.2
X120.5Y-120.5
X120.5Y-123.04
X120.5Y-125.58
X120.5Y-128.12
X120.5Y-130.66
X120.5Y-133.2
M30
