%TF.GenerationSoftware,KiCad,Pcbnew,9.0.5*%
%TF.CreationDate,2026-05-25T17:23:35-03:00*%
%TF.ProjectId,Esquematico_eletrico,45737175-656d-4617-9469-636f5f656c65,rev?*%
%TF.SameCoordinates,Original*%
%TF.FileFunction,Copper,L2,Bot*%
%TF.FilePolarity,Positive*%
%FSLAX46Y46*%
G04 Gerber Fmt 4.6, Leading zero omitted, Abs format (unit mm)*
G04 Created by KiCad (PCBNEW 9.0.5) date 2026-05-25 17:23:35*
%MOMM*%
%LPD*%
G01*
G04 APERTURE LIST*
G04 Aperture macros list*
%AMRoundRect*
0 Rectangle with rounded corners*
0 $1 Rounding radius*
0 $2 $3 $4 $5 $6 $7 $8 $9 X,Y pos of 4 corners*
0 Add a 4 corners polygon primitive as box body*
4,1,4,$2,$3,$4,$5,$6,$7,$8,$9,$2,$3,0*
0 Add four circle primitives for the rounded corners*
1,1,$1+$1,$2,$3*
1,1,$1+$1,$4,$5*
1,1,$1+$1,$6,$7*
1,1,$1+$1,$8,$9*
0 Add four rect primitives between the rounded corners*
20,1,$1+$1,$2,$3,$4,$5,0*
20,1,$1+$1,$4,$5,$6,$7,0*
20,1,$1+$1,$6,$7,$8,$9,0*
20,1,$1+$1,$8,$9,$2,$3,0*%
%AMFreePoly0*
4,1,37,0.000000,0.796148,0.078414,0.796148,0.232228,0.765552,0.377117,0.705537,0.507515,0.618408,0.618408,0.507515,0.705537,0.377117,0.765552,0.232228,0.796148,0.078414,0.796148,-0.078414,0.765552,-0.232228,0.705537,-0.377117,0.618408,-0.507515,0.507515,-0.618408,0.377117,-0.705537,0.232228,-0.765552,0.078414,-0.796148,0.000000,-0.796148,0.000000,-0.800000,-0.600000,-0.800000,
-0.603843,-0.796157,-0.639018,-0.796157,-0.711114,-0.766294,-0.766294,-0.711114,-0.796157,-0.639018,-0.796157,-0.603843,-0.800000,-0.600000,-0.800000,0.600000,-0.796157,0.603843,-0.796157,0.639018,-0.766294,0.711114,-0.711114,0.766294,-0.639018,0.796157,-0.603843,0.796157,-0.600000,0.800000,0.000000,0.800000,0.000000,0.796148,0.000000,0.796148,$1*%
%AMFreePoly1*
4,1,37,0.603843,0.796157,0.639018,0.796157,0.711114,0.766294,0.766294,0.711114,0.796157,0.639018,0.796157,0.603843,0.800000,0.600000,0.800000,-0.600000,0.796157,-0.603843,0.796157,-0.639018,0.766294,-0.711114,0.711114,-0.766294,0.639018,-0.796157,0.603843,-0.796157,0.600000,-0.800000,0.000000,-0.800000,0.000000,-0.796148,-0.078414,-0.796148,-0.232228,-0.765552,-0.377117,-0.705537,
-0.507515,-0.618408,-0.618408,-0.507515,-0.705537,-0.377117,-0.765552,-0.232228,-0.796148,-0.078414,-0.796148,0.078414,-0.765552,0.232228,-0.705537,0.377117,-0.618408,0.507515,-0.507515,0.618408,-0.377117,0.705537,-0.232228,0.765552,-0.078414,0.796148,0.000000,0.796148,0.000000,0.800000,0.600000,0.800000,0.603843,0.796157,0.603843,0.796157,$1*%
G04 Aperture macros list end*
%TA.AperFunction,ComponentPad*%
%ADD10C,1.600000*%
%TD*%
%TA.AperFunction,ComponentPad*%
%ADD11R,1.800000X1.800000*%
%TD*%
%TA.AperFunction,ComponentPad*%
%ADD12C,1.800000*%
%TD*%
%TA.AperFunction,ComponentPad*%
%ADD13C,1.524000*%
%TD*%
%TA.AperFunction,ComponentPad*%
%ADD14R,1.524000X1.524000*%
%TD*%
%TA.AperFunction,ComponentPad*%
%ADD15R,1.700000X1.700000*%
%TD*%
%TA.AperFunction,ComponentPad*%
%ADD16C,1.700000*%
%TD*%
%TA.AperFunction,ComponentPad*%
%ADD17FreePoly0,0.000000*%
%TD*%
%TA.AperFunction,ComponentPad*%
%ADD18FreePoly1,0.000000*%
%TD*%
%TA.AperFunction,ComponentPad*%
%ADD19RoundRect,0.200000X-0.600000X-0.600000X0.600000X-0.600000X0.600000X0.600000X-0.600000X0.600000X0*%
%TD*%
%TA.AperFunction,ComponentPad*%
%ADD20R,2.540000X2.540000*%
%TD*%
%TA.AperFunction,ComponentPad*%
%ADD21C,2.540000*%
%TD*%
%TA.AperFunction,Conductor*%
%ADD22C,0.700000*%
%TD*%
G04 APERTURE END LIST*
D10*
%TO.P,R2,1*%
%TO.N,Net-(A1-GPIO28_ADC2)*%
X139500000Y-81000000D03*
%TO.P,R2,2*%
%TO.N,Net-(D2-A)*%
X149660000Y-81000000D03*
%TD*%
D11*
%TO.P,D2,1,K*%
%TO.N,GND*%
X159250000Y-83540000D03*
D12*
%TO.P,D2,2,A*%
%TO.N,Net-(D2-A)*%
X159250000Y-81000000D03*
%TD*%
D13*
%TO.P,U3,GND_1,GND*%
%TO.N,GND*%
X120500000Y-128120000D03*
%TO.P,U3,GND_2,GND*%
X110340000Y-128120000D03*
%TO.P,U3,HV,HV*%
%TO.N,+5V*%
X120500000Y-125580000D03*
D14*
%TO.P,U3,HV1,HV1*%
%TO.N,Net-(Ponte H1-Pin_4)*%
X120500000Y-120500000D03*
D13*
%TO.P,U3,HV2,HV2*%
%TO.N,Net-(Ponte H1-Pin_3)*%
X120500000Y-123040000D03*
%TO.P,U3,HV3,HV3*%
%TO.N,Net-(ExpansaoSegundoMoto1-Pin_2)*%
X120500000Y-130660000D03*
%TO.P,U3,HV4,HV4*%
%TO.N,Net-(ExpansaoSegundoMoto1-Pin_1)*%
X120500000Y-133200000D03*
%TO.P,U3,LV,LV*%
%TO.N,Net-(A1-3V3_EN)*%
X110340000Y-125580000D03*
D14*
%TO.P,U3,LV1,LV1*%
%TO.N,Net-(A1-GPIO5)*%
X110340000Y-120500000D03*
D13*
%TO.P,U3,LV2,LV2*%
%TO.N,Net-(A1-GPIO4)*%
X110340000Y-123040000D03*
%TO.P,U3,LV3,LV3*%
%TO.N,Net-(A1-GPIO3)*%
X110340000Y-130660000D03*
%TO.P,U3,LV4,LV4*%
%TO.N,Net-(A1-GPIO2)*%
X110340000Y-133200000D03*
%TD*%
D15*
%TO.P,Alimenta\u00E7\u00E3o1,1,Pin_1*%
%TO.N,+7.5V*%
X191500000Y-59820000D03*
D16*
%TO.P,Alimenta\u00E7\u00E3o1,2,Pin_2*%
%TO.N,GND*%
X191500000Y-57280000D03*
%TD*%
D10*
%TO.P,R1,1*%
%TO.N,Net-(A1-GPIO27_ADC1)*%
X139500000Y-85000000D03*
%TO.P,R1,2*%
%TO.N,Net-(D1-A)*%
X149660000Y-85000000D03*
%TD*%
D15*
%TO.P,ExpansaoSegundoMoto1,1,Pin_1*%
%TO.N,Net-(ExpansaoSegundoMoto1-Pin_1)*%
X147225000Y-132750000D03*
D16*
%TO.P,ExpansaoSegundoMoto1,2,Pin_2*%
%TO.N,Net-(ExpansaoSegundoMoto1-Pin_2)*%
X147225000Y-130210000D03*
%TD*%
D15*
%TO.P,Ponte H1,1,Pin_1*%
%TO.N,GND*%
X147250000Y-125660000D03*
D16*
%TO.P,Ponte H1,2,Pin_2*%
X147250000Y-123120000D03*
%TO.P,Ponte H1,3,Pin_3*%
%TO.N,Net-(Ponte H1-Pin_3)*%
X147250000Y-120580000D03*
%TO.P,Ponte H1,4,Pin_4*%
%TO.N,Net-(Ponte H1-Pin_4)*%
X147250000Y-118040000D03*
%TO.P,Ponte H1,5,Pin_5*%
%TO.N,+7.5V*%
X147250000Y-115500000D03*
%TD*%
D10*
%TO.P,A1,40,VBUS*%
%TO.N,unconnected-(A1-VBUS-Pad40)*%
X124750000Y-62030000D03*
%TO.P,A1,39,VSYS*%
%TO.N,+5V*%
X124750000Y-64570000D03*
D17*
%TO.P,A1,38,GND*%
%TO.N,Net-(A1-GND-Pad13)*%
X124750000Y-67110000D03*
D10*
%TO.P,A1,37,3V3_EN*%
%TO.N,Net-(A1-3V3_EN)*%
X124750000Y-69650000D03*
%TO.P,A1,36,3V3*%
%TO.N,unconnected-(A1-3V3-Pad36)*%
X124750000Y-72190000D03*
%TO.P,A1,35,ADC_VREF*%
%TO.N,unconnected-(A1-ADC_VREF-Pad35)*%
X124750000Y-74730000D03*
%TO.P,A1,34,GPIO28_ADC2*%
%TO.N,Net-(A1-GPIO28_ADC2)*%
X124750000Y-77270000D03*
D17*
%TO.P,A1,33,AGND*%
%TO.N,GND*%
X124750000Y-79810000D03*
D10*
%TO.P,A1,32,GPIO27_ADC1*%
%TO.N,Net-(A1-GPIO27_ADC1)*%
X124750000Y-82350000D03*
%TO.P,A1,31,GPIO26_ADC0*%
%TO.N,unconnected-(A1-GPIO26_ADC0-Pad31)*%
X124750000Y-84890000D03*
%TO.P,A1,30,RUN*%
%TO.N,unconnected-(A1-RUN-Pad30)*%
X124750000Y-87430000D03*
%TO.P,A1,29,GPIO22*%
%TO.N,unconnected-(A1-GPIO22-Pad29)*%
X124750000Y-89970000D03*
D17*
%TO.P,A1,28,GND*%
%TO.N,Net-(A1-GND-Pad13)*%
X124750000Y-92510000D03*
D10*
%TO.P,A1,27,GPIO21*%
%TO.N,Net-(A1-GPIO21)*%
X124750000Y-95050000D03*
%TO.P,A1,26,GPIO20*%
%TO.N,unconnected-(A1-GPIO20-Pad26)*%
X124750000Y-97590000D03*
%TO.P,A1,25,GPIO19*%
%TO.N,unconnected-(A1-GPIO19-Pad25)*%
X124750000Y-100130000D03*
%TO.P,A1,24,GPIO18*%
%TO.N,unconnected-(A1-GPIO18-Pad24)*%
X124750000Y-102670000D03*
D17*
%TO.P,A1,23,GND*%
%TO.N,Net-(A1-GND-Pad13)*%
X124750000Y-105210000D03*
D10*
%TO.P,A1,22,GPIO17*%
%TO.N,Net-(A1-GPIO17)*%
X124750000Y-107750000D03*
%TO.P,A1,21,GPIO16*%
%TO.N,Net-(A1-GPIO16)*%
X124750000Y-110290000D03*
%TO.P,A1,20,GPIO15*%
%TO.N,unconnected-(A1-GPIO15-Pad20)*%
X106970000Y-110290000D03*
%TO.P,A1,19,GPIO14*%
%TO.N,unconnected-(A1-GPIO14-Pad19)*%
X106970000Y-107750000D03*
D18*
%TO.P,A1,18,GND*%
%TO.N,Net-(A1-GND-Pad13)*%
X106970000Y-105210000D03*
D10*
%TO.P,A1,17,GPIO13*%
%TO.N,unconnected-(A1-GPIO13-Pad17)*%
X106970000Y-102670000D03*
%TO.P,A1,16,GPIO12*%
%TO.N,unconnected-(A1-GPIO12-Pad16)*%
X106970000Y-100130000D03*
%TO.P,A1,15,GPIO11*%
%TO.N,unconnected-(A1-GPIO11-Pad15)*%
X106970000Y-97590000D03*
%TO.P,A1,14,GPIO10*%
%TO.N,unconnected-(A1-GPIO10-Pad14)*%
X106970000Y-95050000D03*
D18*
%TO.P,A1,13,GND*%
%TO.N,Net-(A1-GND-Pad13)*%
X106970000Y-92510000D03*
D10*
%TO.P,A1,12,GPIO9*%
%TO.N,unconnected-(A1-GPIO9-Pad12)*%
X106970000Y-89970000D03*
%TO.P,A1,11,GPIO8*%
%TO.N,unconnected-(A1-GPIO8-Pad11)*%
X106970000Y-87430000D03*
%TO.P,A1,10,GPIO7*%
%TO.N,unconnected-(A1-GPIO7-Pad10)*%
X106970000Y-84890000D03*
%TO.P,A1,9,GPIO6*%
%TO.N,unconnected-(A1-GPIO6-Pad9)*%
X106970000Y-82350000D03*
D18*
%TO.P,A1,8,GND*%
%TO.N,Net-(A1-GND-Pad13)*%
X106970000Y-79810000D03*
D10*
%TO.P,A1,7,GPIO5*%
%TO.N,Net-(A1-GPIO5)*%
X106970000Y-77270000D03*
%TO.P,A1,6,GPIO4*%
%TO.N,Net-(A1-GPIO4)*%
X106970000Y-74730000D03*
%TO.P,A1,5,GPIO3*%
%TO.N,Net-(A1-GPIO3)*%
X106970000Y-72190000D03*
%TO.P,A1,4,GPIO2*%
%TO.N,Net-(A1-GPIO2)*%
X106970000Y-69650000D03*
D18*
%TO.P,A1,3,GND*%
%TO.N,Net-(A1-GND-Pad13)*%
X106970000Y-67110000D03*
D10*
%TO.P,A1,2,GPIO1*%
%TO.N,unconnected-(A1-GPIO1-Pad2)*%
X106970000Y-64570000D03*
D19*
%TO.P,A1,1,GPIO0*%
%TO.N,unconnected-(A1-GPIO0-Pad1)*%
X106970000Y-62030000D03*
%TD*%
D15*
%TO.P,Servo1,1,Pin_1*%
%TO.N,Net-(A1-GPIO21)*%
X182460000Y-85500000D03*
D16*
%TO.P,Servo1,2,Pin_2*%
%TO.N,+7.5V*%
X185000000Y-85500000D03*
%TO.P,Servo1,3,Pin_3*%
%TO.N,GND*%
X187540000Y-85500000D03*
%TD*%
D20*
%TO.P,U2,1,Vin*%
%TO.N,+7.5V*%
X176750000Y-75030000D03*
D21*
%TO.P,U2,2,GND*%
%TO.N,GND*%
X176750000Y-57250000D03*
%TO.P,U2,3,GND*%
%TO.N,Net-(A1-GND-Pad13)*%
X136110000Y-57250000D03*
%TO.P,U2,4,Vout*%
%TO.N,+5V*%
X136110000Y-75030000D03*
%TD*%
D11*
%TO.P,D1,1,K*%
%TO.N,GND*%
X159250000Y-88210000D03*
D12*
%TO.P,D1,2,A*%
%TO.N,Net-(D1-A)*%
X159250000Y-90750000D03*
%TD*%
D15*
%TO.P,HC08,1,Pin_1*%
%TO.N,Net-(A1-GPIO16)*%
X147500000Y-103620000D03*
D16*
%TO.P,HC08,2,Pin_2*%
%TO.N,Net-(A1-GPIO17)*%
X147500000Y-101080000D03*
%TO.P,HC08,3,Pin_3*%
%TO.N,GND*%
X147500000Y-98540000D03*
%TO.P,HC08,4,Pin_4*%
%TO.N,Net-(A1-3V3_EN)*%
X147500000Y-96000000D03*
%TD*%
D22*
%TO.N,+5V*%
X117830000Y-125580000D02*
X120500000Y-125580000D01*
X115000000Y-128410000D02*
X117830000Y-125580000D01*
X115000000Y-135250000D02*
X115000000Y-128410000D01*
X112500000Y-137750000D02*
X115000000Y-135250000D01*
X104000000Y-137750000D02*
X112500000Y-137750000D01*
X88500000Y-122250000D02*
X104000000Y-137750000D01*
X88500000Y-76750000D02*
X88500000Y-122250000D01*
X101750000Y-55750000D02*
X101750000Y-63500000D01*
X101750000Y-63500000D02*
X88500000Y-76750000D01*
X146500000Y-59250000D02*
X141750000Y-54500000D01*
X146500000Y-71000000D02*
X146500000Y-59250000D01*
X141750000Y-54500000D02*
X103000000Y-54500000D01*
X142470000Y-75030000D02*
X146500000Y-71000000D01*
X103000000Y-54500000D02*
X101750000Y-55750000D01*
X136110000Y-75030000D02*
X142470000Y-75030000D01*
%TO.N,+7.5V*%
X199250000Y-106750000D02*
X190500000Y-115500000D01*
X199250000Y-74750000D02*
X199250000Y-106750000D01*
X190500000Y-115500000D02*
X147250000Y-115500000D01*
X194750000Y-70250000D02*
X199250000Y-74750000D01*
X184750000Y-65500000D02*
X189500000Y-70250000D01*
X189500000Y-70250000D02*
X194750000Y-70250000D01*
X184750000Y-65500000D02*
X184750000Y-69750000D01*
%TO.N,Net-(Ponte H1-Pin_4)*%
X132500000Y-120500000D02*
X134960000Y-118040000D01*
X120500000Y-120500000D02*
X132500000Y-120500000D01*
X134960000Y-118040000D02*
X147250000Y-118040000D01*
%TO.N,Net-(Ponte H1-Pin_3)*%
X135420000Y-120580000D02*
X147250000Y-120580000D01*
X132960000Y-123040000D02*
X135420000Y-120580000D01*
X120500000Y-123040000D02*
X132960000Y-123040000D01*
%TO.N,Net-(ExpansaoSegundoMoto1-Pin_2)*%
X132540000Y-130210000D02*
X147225000Y-130210000D01*
X120500000Y-130660000D02*
X132090000Y-130660000D01*
X132090000Y-130660000D02*
X132540000Y-130210000D01*
%TO.N,Net-(ExpansaoSegundoMoto1-Pin_1)*%
X133000000Y-132750000D02*
X147225000Y-132750000D01*
X132550000Y-133200000D02*
X133000000Y-132750000D01*
X120500000Y-133200000D02*
X132550000Y-133200000D01*
%TO.N,Net-(A1-GPIO2)*%
X93500000Y-78250000D02*
X102100000Y-69650000D01*
X102100000Y-69650000D02*
X106970000Y-69650000D01*
X104200000Y-133200000D02*
X93500000Y-122500000D01*
X110340000Y-133200000D02*
X104200000Y-133200000D01*
X93500000Y-122500000D02*
X93500000Y-78250000D01*
%TO.N,Net-(A1-GPIO3)*%
X104410000Y-130660000D02*
X110340000Y-130660000D01*
X95750000Y-78500000D02*
X95750000Y-122000000D01*
X102060000Y-72190000D02*
X95750000Y-78500000D01*
X95750000Y-122000000D02*
X104410000Y-130660000D01*
X106970000Y-72190000D02*
X102060000Y-72190000D01*
%TO.N,Net-(A1-GPIO4)*%
X104020000Y-74730000D02*
X106970000Y-74730000D01*
X100000000Y-78750000D02*
X104020000Y-74730000D01*
X100000000Y-118500000D02*
X100000000Y-78750000D01*
X104540000Y-123040000D02*
X100000000Y-118500000D01*
X110340000Y-123040000D02*
X104540000Y-123040000D01*
%TO.N,Net-(A1-GPIO5)*%
X102000000Y-79500000D02*
X104230000Y-77270000D01*
X102000000Y-117750000D02*
X102000000Y-79500000D01*
X104230000Y-77270000D02*
X106970000Y-77270000D01*
X104750000Y-120500000D02*
X102000000Y-117750000D01*
X110340000Y-120500000D02*
X104750000Y-120500000D01*
%TO.N,Net-(A1-GND-Pad13)*%
X122750000Y-57250000D02*
X121000000Y-59000000D01*
X122610000Y-67110000D02*
X124750000Y-67110000D01*
X136110000Y-57250000D02*
X122750000Y-57250000D01*
X121000000Y-59000000D02*
X121000000Y-65500000D01*
X121000000Y-65500000D02*
X122610000Y-67110000D01*
%TO.N,Net-(A1-GPIO21)*%
X133000000Y-92250000D02*
X150250000Y-92250000D01*
X124750000Y-95050000D02*
X130200000Y-95050000D01*
X150250000Y-92250000D02*
X152000000Y-94000000D01*
X130200000Y-95050000D02*
X133000000Y-92250000D01*
X163750000Y-94000000D02*
X172250000Y-85500000D01*
X172250000Y-85500000D02*
X182460000Y-85500000D01*
X152000000Y-94000000D02*
X163750000Y-94000000D01*
%TO.N,+5V*%
X124750000Y-64570000D02*
X128820000Y-64570000D01*
X128820000Y-64570000D02*
X130500000Y-66250000D01*
X130500000Y-73250000D02*
X132280000Y-75030000D01*
X130500000Y-66250000D02*
X130500000Y-73250000D01*
X132280000Y-75030000D02*
X136110000Y-75030000D01*
%TO.N,Net-(A1-GPIO27_ADC1)*%
X124750000Y-82350000D02*
X130100000Y-82350000D01*
X132750000Y-85000000D02*
X139500000Y-85000000D01*
X130100000Y-82350000D02*
X132750000Y-85000000D01*
%TO.N,Net-(A1-GPIO17)*%
X130750000Y-107750000D02*
X124750000Y-107750000D01*
X147500000Y-101080000D02*
X137420000Y-101080000D01*
X137420000Y-101080000D02*
X130750000Y-107750000D01*
%TO.N,Net-(A1-GPIO16)*%
X124750000Y-110290000D02*
X131460000Y-110290000D01*
X138130000Y-103620000D02*
X147500000Y-103620000D01*
X131460000Y-110290000D02*
X138130000Y-103620000D01*
%TO.N,Net-(A1-GPIO28_ADC2)*%
X134000000Y-81000000D02*
X139500000Y-81000000D01*
X130270000Y-77270000D02*
X134000000Y-81000000D01*
X124750000Y-77270000D02*
X130270000Y-77270000D01*
%TO.N,Net-(A1-3V3_EN)*%
X154000000Y-105250000D02*
X154000000Y-97750000D01*
X132000000Y-116000000D02*
X139500000Y-108500000D01*
X152250000Y-96000000D02*
X147500000Y-96000000D01*
X113920000Y-125580000D02*
X110340000Y-125580000D01*
X121000000Y-71000000D02*
X121000000Y-106500000D01*
X124750000Y-69650000D02*
X122350000Y-69650000D01*
X154000000Y-97750000D02*
X152250000Y-96000000D01*
X121000000Y-106500000D02*
X116250000Y-111250000D01*
X116250000Y-114000000D02*
X116250000Y-123250000D01*
X122350000Y-69650000D02*
X121000000Y-71000000D01*
X116250000Y-123250000D02*
X113920000Y-125580000D01*
X116250000Y-111250000D02*
X116250000Y-114000000D01*
X118250000Y-116000000D02*
X132000000Y-116000000D01*
X150750000Y-108500000D02*
X154000000Y-105250000D01*
X139500000Y-108500000D02*
X150750000Y-108500000D01*
X116250000Y-114000000D02*
X118250000Y-116000000D01*
%TO.N,+7.5V*%
X184750000Y-69750000D02*
X184750000Y-69500000D01*
X191500000Y-59820000D02*
X186680000Y-59820000D01*
X184750000Y-61750000D02*
X184750000Y-65500000D01*
X184750000Y-72500000D02*
X184750000Y-69750000D01*
X182220000Y-75030000D02*
X184750000Y-72500000D01*
X186680000Y-59820000D02*
X184750000Y-61750000D01*
X185000000Y-77500000D02*
X185000000Y-85500000D01*
X176750000Y-75030000D02*
X182220000Y-75030000D01*
X182530000Y-75030000D02*
X185000000Y-77500000D01*
X182220000Y-75030000D02*
X182530000Y-75030000D01*
%TO.N,GND*%
X191470000Y-57250000D02*
X191500000Y-57280000D01*
X176750000Y-57250000D02*
X191470000Y-57250000D01*
%TO.N,Net-(D1-A)*%
X152500000Y-85000000D02*
X154000000Y-86500000D01*
X149660000Y-85000000D02*
X152500000Y-85000000D01*
X155000000Y-90750000D02*
X159250000Y-90750000D01*
X154000000Y-89750000D02*
X155000000Y-90750000D01*
X154000000Y-86500000D02*
X154000000Y-89750000D01*
%TO.N,Net-(D2-A)*%
X149660000Y-81000000D02*
X159250000Y-81000000D01*
%TD*%
%TA.AperFunction,Conductor*%
%TO.N,GND*%
G36*
X135048076Y-56019685D02*
G01*
X135093831Y-56072489D01*
X135103775Y-56141647D01*
X135074750Y-56205203D01*
X135068718Y-56211681D01*
X134988363Y-56292035D01*
X134988359Y-56292040D01*
X134852318Y-56479286D01*
X134774610Y-56631795D01*
X134726635Y-56682591D01*
X134664125Y-56699500D01*
X122677525Y-56699500D01*
X122573491Y-56727376D01*
X122573490Y-56727375D01*
X122537519Y-56737014D01*
X122537514Y-56737016D01*
X122411986Y-56809489D01*
X122411983Y-56809491D01*
X120559491Y-58661983D01*
X120559489Y-58661986D01*
X120546612Y-58684290D01*
X120523193Y-58724855D01*
X120497418Y-58769499D01*
X120497416Y-58769502D01*
X120487017Y-58787512D01*
X120487016Y-58787514D01*
X120487016Y-58787515D01*
X120449500Y-58927525D01*
X120449500Y-65572475D01*
X120483537Y-65699500D01*
X120487016Y-65712485D01*
X120559490Y-65838015D01*
X122271985Y-67550510D01*
X122397515Y-67622984D01*
X122537525Y-67660500D01*
X122537526Y-67660500D01*
X122682474Y-67660500D01*
X123624976Y-67660500D01*
X123692015Y-67680185D01*
X123737770Y-67732989D01*
X123746593Y-67760309D01*
X123760140Y-67828416D01*
X123760145Y-67828433D01*
X123790586Y-67901925D01*
X123790588Y-67901929D01*
X123790590Y-67901932D01*
X123835138Y-67968601D01*
X123891399Y-68024862D01*
X123891402Y-68024864D01*
X123896111Y-68028729D01*
X123894733Y-68030407D01*
X123933261Y-68076502D01*
X123941974Y-68145826D01*
X123911823Y-68208856D01*
X123852383Y-68245579D01*
X123819569Y-68250000D01*
X122750000Y-68250000D01*
X122750000Y-68975500D01*
X122730315Y-69042539D01*
X122677511Y-69088294D01*
X122626000Y-69099500D01*
X122277525Y-69099500D01*
X122172517Y-69127637D01*
X122137514Y-69137016D01*
X122011986Y-69209489D01*
X122011983Y-69209491D01*
X120559491Y-70661983D01*
X120559489Y-70661986D01*
X120501180Y-70762983D01*
X120501178Y-70762986D01*
X120487017Y-70787512D01*
X120487016Y-70787514D01*
X120487016Y-70787515D01*
X120449500Y-70927525D01*
X120449500Y-70927526D01*
X120449500Y-70927527D01*
X120449500Y-106220613D01*
X120429815Y-106287652D01*
X120413181Y-106308294D01*
X115809491Y-110911983D01*
X115809489Y-110911986D01*
X115737016Y-111037514D01*
X115737016Y-111037515D01*
X115699500Y-111177525D01*
X115699500Y-111177527D01*
X115699500Y-122970613D01*
X115679815Y-123037652D01*
X115663181Y-123058294D01*
X113728294Y-124993181D01*
X113666971Y-125026666D01*
X113640613Y-125029500D01*
X112374000Y-125029500D01*
X112306961Y-125009815D01*
X112261206Y-124957011D01*
X112250000Y-124905500D01*
X112250000Y-119000000D01*
X108500000Y-119000000D01*
X108500000Y-119825500D01*
X108480315Y-119892539D01*
X108427511Y-119938294D01*
X108376000Y-119949500D01*
X105029387Y-119949500D01*
X104962348Y-119929815D01*
X104941706Y-119913181D01*
X102586819Y-117558294D01*
X102553334Y-117496971D01*
X102550500Y-117470613D01*
X102550500Y-79779387D01*
X102570185Y-79712348D01*
X102586819Y-79691706D01*
X104421706Y-77856819D01*
X104483029Y-77823334D01*
X104509387Y-77820500D01*
X105126000Y-77820500D01*
X105193039Y-77840185D01*
X105238794Y-77892989D01*
X105250000Y-77944500D01*
X105250000Y-112000000D01*
X109000000Y-112000000D01*
X109000000Y-65097486D01*
X112259500Y-65097486D01*
X112259500Y-65282513D01*
X112288445Y-65465265D01*
X112345619Y-65641232D01*
X112345620Y-65641235D01*
X112429622Y-65806096D01*
X112538379Y-65955787D01*
X112669213Y-66086621D01*
X112818904Y-66195378D01*
X112882536Y-66227800D01*
X112983764Y-66279379D01*
X112983767Y-66279380D01*
X113071750Y-66307967D01*
X113159736Y-66336555D01*
X113342486Y-66365500D01*
X113342487Y-66365500D01*
X113527513Y-66365500D01*
X113527514Y-66365500D01*
X113710264Y-66336555D01*
X113886235Y-66279379D01*
X114051096Y-66195378D01*
X114200787Y-66086621D01*
X114331621Y-65955787D01*
X114440378Y-65806096D01*
X114524379Y-65641235D01*
X114581555Y-65465264D01*
X114610500Y-65282514D01*
X114610500Y-65097486D01*
X117109500Y-65097486D01*
X117109500Y-65282513D01*
X117138445Y-65465265D01*
X117195619Y-65641232D01*
X117195620Y-65641235D01*
X117279622Y-65806096D01*
X117388379Y-65955787D01*
X117519213Y-66086621D01*
X117668904Y-66195378D01*
X117732536Y-66227800D01*
X117833764Y-66279379D01*
X117833767Y-66279380D01*
X117921750Y-66307967D01*
X118009736Y-66336555D01*
X118192486Y-66365500D01*
X118192487Y-66365500D01*
X118377513Y-66365500D01*
X118377514Y-66365500D01*
X118560264Y-66336555D01*
X118736235Y-66279379D01*
X118901096Y-66195378D01*
X119050787Y-66086621D01*
X119181621Y-65955787D01*
X119290378Y-65806096D01*
X119374379Y-65641235D01*
X119431555Y-65465264D01*
X119460500Y-65282514D01*
X119460500Y-65097486D01*
X119431555Y-64914736D01*
X119374379Y-64738765D01*
X119374379Y-64738764D01*
X119290377Y-64573903D01*
X119181621Y-64424213D01*
X119050787Y-64293379D01*
X118901096Y-64184622D01*
X118736235Y-64100620D01*
X118736232Y-64100619D01*
X118560265Y-64043445D01*
X118409082Y-64019500D01*
X118377514Y-64014500D01*
X118192486Y-64014500D01*
X118160918Y-64019500D01*
X118009734Y-64043445D01*
X117833767Y-64100619D01*
X117833764Y-64100620D01*
X117668903Y-64184622D01*
X117583499Y-64246672D01*
X117519213Y-64293379D01*
X117519211Y-64293381D01*
X117519210Y-64293381D01*
X117388381Y-64424210D01*
X117388381Y-64424211D01*
X117388379Y-64424213D01*
X117341672Y-64488499D01*
X117279622Y-64573903D01*
X117195620Y-64738764D01*
X117195619Y-64738767D01*
X117138445Y-64914734D01*
X117109500Y-65097486D01*
X114610500Y-65097486D01*
X114581555Y-64914736D01*
X114524379Y-64738765D01*
X114524379Y-64738764D01*
X114440377Y-64573903D01*
X114331621Y-64424213D01*
X114200787Y-64293379D01*
X114051096Y-64184622D01*
X113886235Y-64100620D01*
X113886232Y-64100619D01*
X113710265Y-64043445D01*
X113559082Y-64019500D01*
X113527514Y-64014500D01*
X113342486Y-64014500D01*
X113310918Y-64019500D01*
X113159734Y-64043445D01*
X112983767Y-64100619D01*
X112983764Y-64100620D01*
X112818903Y-64184622D01*
X112733499Y-64246672D01*
X112669213Y-64293379D01*
X112669211Y-64293381D01*
X112669210Y-64293381D01*
X112538381Y-64424210D01*
X112538381Y-64424211D01*
X112538379Y-64424213D01*
X112491672Y-64488499D01*
X112429622Y-64573903D01*
X112345620Y-64738764D01*
X112345619Y-64738767D01*
X112288445Y-64914734D01*
X112259500Y-65097486D01*
X109000000Y-65097486D01*
X109000000Y-62053713D01*
X111784500Y-62053713D01*
X111784500Y-62266286D01*
X111815794Y-62463872D01*
X111817754Y-62476243D01*
X111842073Y-62551090D01*
X111883444Y-62678414D01*
X111979951Y-62867820D01*
X112104890Y-63039786D01*
X112255213Y-63190109D01*
X112427179Y-63315048D01*
X112427181Y-63315049D01*
X112427184Y-63315051D01*
X112616588Y-63411557D01*
X112818757Y-63477246D01*
X113028713Y-63510500D01*
X113028714Y-63510500D01*
X113241286Y-63510500D01*
X113241287Y-63510500D01*
X113451243Y-63477246D01*
X113653412Y-63411557D01*
X113842816Y-63315051D01*
X113880528Y-63287652D01*
X114014786Y-63190109D01*
X114014788Y-63190106D01*
X114014792Y-63190104D01*
X114165104Y-63039792D01*
X114165106Y-63039788D01*
X114165109Y-63039786D01*
X114290048Y-62867820D01*
X114290047Y-62867820D01*
X114290051Y-62867816D01*
X114386557Y-62678412D01*
X114452246Y-62476243D01*
X114485500Y-62266287D01*
X114485500Y-62053713D01*
X117234500Y-62053713D01*
X117234500Y-62266286D01*
X117265794Y-62463872D01*
X117267754Y-62476243D01*
X117292073Y-62551090D01*
X117333444Y-62678414D01*
X117429951Y-62867820D01*
X117554890Y-63039786D01*
X117705213Y-63190109D01*
X117877179Y-63315048D01*
X117877181Y-63315049D01*
X117877184Y-63315051D01*
X118066588Y-63411557D01*
X118268757Y-63477246D01*
X118478713Y-63510500D01*
X118478714Y-63510500D01*
X118691286Y-63510500D01*
X118691287Y-63510500D01*
X118901243Y-63477246D01*
X119103412Y-63411557D01*
X119292816Y-63315051D01*
X119330528Y-63287652D01*
X119464786Y-63190109D01*
X119464788Y-63190106D01*
X119464792Y-63190104D01*
X119615104Y-63039792D01*
X119615106Y-63039788D01*
X119615109Y-63039786D01*
X119740048Y-62867820D01*
X119740047Y-62867820D01*
X119740051Y-62867816D01*
X119836557Y-62678412D01*
X119902246Y-62476243D01*
X119935500Y-62266287D01*
X119935500Y-62053713D01*
X119902246Y-61843757D01*
X119836557Y-61641588D01*
X119740051Y-61452184D01*
X119740049Y-61452181D01*
X119740048Y-61452179D01*
X119615109Y-61280213D01*
X119464786Y-61129890D01*
X119292820Y-61004951D01*
X119103414Y-60908444D01*
X119103413Y-60908443D01*
X119103412Y-60908443D01*
X118901243Y-60842754D01*
X118901241Y-60842753D01*
X118901240Y-60842753D01*
X118739957Y-60817208D01*
X118691287Y-60809500D01*
X118478713Y-60809500D01*
X118430042Y-60817208D01*
X118268760Y-60842753D01*
X118066585Y-60908444D01*
X117877179Y-61004951D01*
X117705213Y-61129890D01*
X117554890Y-61280213D01*
X117429951Y-61452179D01*
X117333444Y-61641585D01*
X117267753Y-61843760D01*
X117234500Y-62053713D01*
X114485500Y-62053713D01*
X114452246Y-61843757D01*
X114386557Y-61641588D01*
X114290051Y-61452184D01*
X114290049Y-61452181D01*
X114290048Y-61452179D01*
X114165109Y-61280213D01*
X114014786Y-61129890D01*
X113842820Y-61004951D01*
X113653414Y-60908444D01*
X113653413Y-60908443D01*
X113653412Y-60908443D01*
X113451243Y-60842754D01*
X113451241Y-60842753D01*
X113451240Y-60842753D01*
X113289957Y-60817208D01*
X113241287Y-60809500D01*
X113028713Y-60809500D01*
X112980042Y-60817208D01*
X112818760Y-60842753D01*
X112616585Y-60908444D01*
X112427179Y-61004951D01*
X112255213Y-61129890D01*
X112104890Y-61280213D01*
X111979951Y-61452179D01*
X111883444Y-61641585D01*
X111817753Y-61843760D01*
X111784500Y-62053713D01*
X109000000Y-62053713D01*
X109000000Y-60000000D01*
X105250000Y-60000000D01*
X105250000Y-68975500D01*
X105230315Y-69042539D01*
X105177511Y-69088294D01*
X105126000Y-69099500D01*
X102027525Y-69099500D01*
X101943519Y-69122009D01*
X101887513Y-69137016D01*
X101887512Y-69137017D01*
X101761989Y-69209487D01*
X101761984Y-69209491D01*
X93059491Y-77911983D01*
X93059489Y-77911985D01*
X93034082Y-77955992D01*
X93008675Y-78000000D01*
X92987016Y-78037515D01*
X92949500Y-78177525D01*
X92949500Y-122572475D01*
X92983537Y-122699500D01*
X92987016Y-122712485D01*
X93059490Y-122838015D01*
X103861985Y-133640510D01*
X103987515Y-133712984D01*
X104127525Y-133750500D01*
X104127526Y-133750500D01*
X104272474Y-133750500D01*
X108376000Y-133750500D01*
X108443039Y-133770185D01*
X108488794Y-133822989D01*
X108500000Y-133874500D01*
X108500000Y-134750000D01*
X112250000Y-134750000D01*
X112250000Y-129500000D01*
X110927889Y-129500000D01*
X110860850Y-129480315D01*
X110815095Y-129427511D01*
X110805151Y-129358353D01*
X110834176Y-129294797D01*
X110871594Y-129265515D01*
X111001425Y-129199362D01*
X111038716Y-129172268D01*
X110475942Y-128609494D01*
X110536081Y-128593381D01*
X110651920Y-128526502D01*
X110746502Y-128431920D01*
X110813381Y-128316081D01*
X110829495Y-128255942D01*
X111392268Y-128818715D01*
X111419362Y-128781425D01*
X111509542Y-128604437D01*
X111570924Y-128415523D01*
X111570924Y-128415520D01*
X111602000Y-128219321D01*
X111602000Y-128020678D01*
X111570924Y-127824479D01*
X111570924Y-127824476D01*
X111509542Y-127635562D01*
X111419358Y-127458567D01*
X111392268Y-127421283D01*
X110829494Y-127984057D01*
X110813381Y-127923919D01*
X110746502Y-127808080D01*
X110651920Y-127713498D01*
X110536081Y-127646619D01*
X110475942Y-127630504D01*
X111038716Y-127067731D01*
X111038715Y-127067730D01*
X111001432Y-127040641D01*
X110891220Y-126984485D01*
X110840424Y-126936510D01*
X110823629Y-126868689D01*
X110846167Y-126802554D01*
X110900882Y-126759103D01*
X110947515Y-126750000D01*
X112250000Y-126750000D01*
X112250000Y-126254500D01*
X112269685Y-126187461D01*
X112322489Y-126141706D01*
X112374000Y-126130500D01*
X113992472Y-126130500D01*
X113992474Y-126130500D01*
X113992475Y-126130500D01*
X114132485Y-126092984D01*
X114258015Y-126020510D01*
X116690510Y-123588014D01*
X116762984Y-123462485D01*
X116800500Y-123322474D01*
X116800500Y-123177526D01*
X116800500Y-115628387D01*
X116820185Y-115561348D01*
X116872989Y-115515593D01*
X116942147Y-115505649D01*
X117005703Y-115534674D01*
X117012181Y-115540706D01*
X117911985Y-116440510D01*
X118032568Y-116510128D01*
X118032571Y-116510131D01*
X118037510Y-116512982D01*
X118037512Y-116512982D01*
X118037515Y-116512984D01*
X118177525Y-116550500D01*
X118177526Y-116550500D01*
X118177528Y-116550500D01*
X132072472Y-116550500D01*
X132072474Y-116550500D01*
X132072475Y-116550500D01*
X132212485Y-116512984D01*
X132212487Y-116512982D01*
X132212489Y-116512982D01*
X132217401Y-116510146D01*
X132217408Y-116510141D01*
X132217428Y-116510130D01*
X132338015Y-116440510D01*
X139691706Y-109086819D01*
X139753029Y-109053334D01*
X139779387Y-109050500D01*
X150822472Y-109050500D01*
X150822474Y-109050500D01*
X150822475Y-109050500D01*
X150962485Y-109012984D01*
X151088015Y-108940510D01*
X154440510Y-105588015D01*
X154512984Y-105462485D01*
X154550500Y-105322474D01*
X154550500Y-105177526D01*
X154550500Y-97677525D01*
X154512984Y-97537515D01*
X154500610Y-97516082D01*
X154440510Y-97411985D01*
X152588015Y-95559490D01*
X152462485Y-95487016D01*
X152462486Y-95487016D01*
X152427482Y-95477637D01*
X152322475Y-95449500D01*
X152322472Y-95449500D01*
X149624000Y-95449500D01*
X149556961Y-95429815D01*
X149511206Y-95377011D01*
X149500000Y-95325500D01*
X149500000Y-93750000D01*
X145750000Y-93750000D01*
X145750000Y-97250000D01*
X146617891Y-97250000D01*
X146684930Y-97269685D01*
X146730685Y-97322489D01*
X146741509Y-97383729D01*
X146738282Y-97424728D01*
X147370591Y-98057037D01*
X147307007Y-98074075D01*
X147192993Y-98139901D01*
X147099901Y-98232993D01*
X147034075Y-98347007D01*
X147017037Y-98410591D01*
X146384728Y-97778282D01*
X146384727Y-97778282D01*
X146345380Y-97832439D01*
X146248904Y-98021782D01*
X146183242Y-98223869D01*
X146183242Y-98223872D01*
X146150000Y-98433753D01*
X146150000Y-98646246D01*
X146183242Y-98856127D01*
X146183242Y-98856130D01*
X146248904Y-99058217D01*
X146345375Y-99247550D01*
X146384728Y-99301716D01*
X147017037Y-98669408D01*
X147034075Y-98732993D01*
X147099901Y-98847007D01*
X147192993Y-98940099D01*
X147307007Y-99005925D01*
X147370590Y-99022962D01*
X146724025Y-99669526D01*
X146720849Y-99684647D01*
X146671799Y-99734404D01*
X146611595Y-99750000D01*
X145750000Y-99750000D01*
X145750000Y-100405500D01*
X145730315Y-100472539D01*
X145677511Y-100518294D01*
X145626000Y-100529500D01*
X137347525Y-100529500D01*
X137242517Y-100557637D01*
X137207514Y-100567016D01*
X137081986Y-100639489D01*
X137081983Y-100639491D01*
X130558294Y-107163181D01*
X130496971Y-107196666D01*
X130470613Y-107199500D01*
X126874000Y-107199500D01*
X126806961Y-107179815D01*
X126761206Y-107127011D01*
X126750000Y-107075500D01*
X126750000Y-106500000D01*
X123000000Y-106500000D01*
X123000000Y-111750000D01*
X126750000Y-111750000D01*
X126750000Y-110964500D01*
X126769685Y-110897461D01*
X126822489Y-110851706D01*
X126874000Y-110840500D01*
X131532472Y-110840500D01*
X131532474Y-110840500D01*
X131532475Y-110840500D01*
X131672485Y-110802984D01*
X131798015Y-110730510D01*
X138321706Y-104206819D01*
X138383029Y-104173334D01*
X138409387Y-104170500D01*
X145626000Y-104170500D01*
X145693039Y-104190185D01*
X145738794Y-104242989D01*
X145750000Y-104294500D01*
X145750000Y-105000000D01*
X149500000Y-105000000D01*
X149500000Y-99750000D01*
X148388404Y-99750000D01*
X148321365Y-99730315D01*
X148275610Y-99677511D01*
X148273817Y-99667370D01*
X147629408Y-99022962D01*
X147692993Y-99005925D01*
X147807007Y-98940099D01*
X147900099Y-98847007D01*
X147965925Y-98732993D01*
X147982962Y-98669408D01*
X148615270Y-99301717D01*
X148615270Y-99301716D01*
X148654622Y-99247554D01*
X148751095Y-99058217D01*
X148816757Y-98856130D01*
X148816757Y-98856127D01*
X148850000Y-98646246D01*
X148850000Y-98433753D01*
X148816757Y-98223872D01*
X148816757Y-98223869D01*
X148751095Y-98021782D01*
X148654624Y-97832449D01*
X148615270Y-97778282D01*
X148615269Y-97778282D01*
X147982962Y-98410590D01*
X147965925Y-98347007D01*
X147900099Y-98232993D01*
X147807007Y-98139901D01*
X147692993Y-98074075D01*
X147629409Y-98057037D01*
X148261716Y-97424728D01*
X148258490Y-97383729D01*
X148272854Y-97315352D01*
X148321905Y-97265595D01*
X148382108Y-97250000D01*
X149500000Y-97250000D01*
X149500000Y-96674500D01*
X149519685Y-96607461D01*
X149572489Y-96561706D01*
X149624000Y-96550500D01*
X151970613Y-96550500D01*
X152037652Y-96570185D01*
X152058294Y-96586819D01*
X153413181Y-97941706D01*
X153446666Y-98003029D01*
X153449500Y-98029387D01*
X153449500Y-104970613D01*
X153429815Y-105037652D01*
X153413181Y-105058294D01*
X150558294Y-107913181D01*
X150496971Y-107946666D01*
X150470613Y-107949500D01*
X139427524Y-107949500D01*
X139355076Y-107968912D01*
X139355076Y-107968913D01*
X139287515Y-107987016D01*
X139287513Y-107987016D01*
X139287513Y-107987017D01*
X139161986Y-108059489D01*
X139161983Y-108059491D01*
X131808294Y-115413181D01*
X131746971Y-115446666D01*
X131720613Y-115449500D01*
X118529387Y-115449500D01*
X118462348Y-115429815D01*
X118441706Y-115413181D01*
X116836819Y-113808294D01*
X116803334Y-113746971D01*
X116800500Y-113720613D01*
X116800500Y-111529387D01*
X116820185Y-111462348D01*
X116836819Y-111441706D01*
X118663025Y-109615500D01*
X121440510Y-106838015D01*
X121512984Y-106712485D01*
X121522351Y-106677526D01*
X121550500Y-106572475D01*
X121550500Y-104570214D01*
X123744500Y-104570214D01*
X123744500Y-105849785D01*
X123760140Y-105928417D01*
X123760145Y-105928433D01*
X123790586Y-106001925D01*
X123790588Y-106001929D01*
X123790590Y-106001932D01*
X123835138Y-106068601D01*
X123891399Y-106124862D01*
X123958068Y-106169410D01*
X123958071Y-106169411D01*
X123958074Y-106169413D01*
X124031566Y-106199854D01*
X124031571Y-106199855D01*
X124031577Y-106199858D01*
X124110215Y-106215499D01*
X124110217Y-106215500D01*
X124110218Y-106215500D01*
X124828788Y-106215500D01*
X124828793Y-106215500D01*
X124868883Y-106211551D01*
X125023441Y-106180808D01*
X125061993Y-106169114D01*
X125207584Y-106108808D01*
X125243112Y-106089818D01*
X125374140Y-106002268D01*
X125405280Y-105976711D01*
X125516711Y-105865280D01*
X125542268Y-105834140D01*
X125629818Y-105703112D01*
X125648808Y-105667584D01*
X125709114Y-105521993D01*
X125720808Y-105483441D01*
X125751551Y-105328883D01*
X125755500Y-105288793D01*
X125755500Y-105131207D01*
X125751551Y-105091117D01*
X125720808Y-104936559D01*
X125709114Y-104898007D01*
X125648808Y-104752416D01*
X125629818Y-104716888D01*
X125629807Y-104716871D01*
X125542274Y-104585868D01*
X125542270Y-104585863D01*
X125516711Y-104554720D01*
X125405279Y-104443288D01*
X125393197Y-104433372D01*
X125374140Y-104417732D01*
X125374136Y-104417729D01*
X125374131Y-104417725D01*
X125243128Y-104330192D01*
X125243120Y-104330187D01*
X125243112Y-104330182D01*
X125207584Y-104311192D01*
X125168829Y-104295139D01*
X125061997Y-104250887D01*
X125023442Y-104239192D01*
X124868884Y-104208449D01*
X124868885Y-104208449D01*
X124857428Y-104207320D01*
X124828793Y-104204500D01*
X124110218Y-104204500D01*
X124110214Y-104204500D01*
X124031582Y-104220140D01*
X124031566Y-104220145D01*
X123958074Y-104250586D01*
X123891397Y-104295139D01*
X123835139Y-104351397D01*
X123790586Y-104418074D01*
X123760145Y-104491566D01*
X123760140Y-104491582D01*
X123744500Y-104570214D01*
X121550500Y-104570214D01*
X121550500Y-71279387D01*
X121570185Y-71212348D01*
X121586819Y-71191706D01*
X122538319Y-70240206D01*
X122599642Y-70206721D01*
X122669334Y-70211705D01*
X122725267Y-70253577D01*
X122749684Y-70319041D01*
X122750000Y-70327887D01*
X122750000Y-78500000D01*
X123563617Y-78500000D01*
X123630656Y-78519685D01*
X123676411Y-78572489D01*
X123686355Y-78641647D01*
X123657330Y-78705203D01*
X123651298Y-78711681D01*
X123623374Y-78739604D01*
X123623340Y-78739640D01*
X123587229Y-78779842D01*
X123513888Y-78903454D01*
X123513884Y-78903461D01*
X123483452Y-78976932D01*
X123483451Y-78976935D01*
X123465455Y-79027946D01*
X123445000Y-79170219D01*
X123445000Y-80449785D01*
X123447893Y-80503762D01*
X123447893Y-80503764D01*
X123483438Y-80643030D01*
X123483442Y-80643042D01*
X123513881Y-80716528D01*
X123513893Y-80716556D01*
X123537218Y-80765309D01*
X123537225Y-80765321D01*
X123564451Y-80801689D01*
X123588869Y-80867153D01*
X123574018Y-80935426D01*
X123524613Y-80984832D01*
X123465185Y-81000000D01*
X123000000Y-81000000D01*
X123000000Y-103750000D01*
X126750000Y-103750000D01*
X126750000Y-95724500D01*
X126769685Y-95657461D01*
X126822489Y-95611706D01*
X126874000Y-95600500D01*
X130272472Y-95600500D01*
X130272474Y-95600500D01*
X130272475Y-95600500D01*
X130412485Y-95562984D01*
X130416762Y-95560514D01*
X130418543Y-95559487D01*
X130490223Y-95518102D01*
X130538015Y-95490510D01*
X133191706Y-92836819D01*
X133253029Y-92803334D01*
X133279387Y-92800500D01*
X149970613Y-92800500D01*
X150037652Y-92820185D01*
X150058294Y-92836819D01*
X151661985Y-94440510D01*
X151764160Y-94499500D01*
X151764161Y-94499501D01*
X151764162Y-94499501D01*
X151787515Y-94512984D01*
X151927525Y-94550500D01*
X151927526Y-94550500D01*
X151927528Y-94550500D01*
X163822472Y-94550500D01*
X163822474Y-94550500D01*
X163822475Y-94550500D01*
X163962485Y-94512984D01*
X163985840Y-94499500D01*
X164088015Y-94440510D01*
X172441706Y-86086819D01*
X172503029Y-86053334D01*
X172529387Y-86050500D01*
X180876000Y-86050500D01*
X180943039Y-86070185D01*
X180988794Y-86122989D01*
X181000000Y-86174500D01*
X181000000Y-87250000D01*
X186250000Y-87250000D01*
X186250000Y-86382107D01*
X186269685Y-86315068D01*
X186322489Y-86269313D01*
X186383731Y-86258489D01*
X186424728Y-86261716D01*
X187057037Y-85629408D01*
X187074075Y-85692993D01*
X187139901Y-85807007D01*
X187232993Y-85900099D01*
X187347007Y-85965925D01*
X187410590Y-85982962D01*
X186778282Y-86615269D01*
X186778282Y-86615270D01*
X186832449Y-86654624D01*
X187021782Y-86751095D01*
X187223870Y-86816757D01*
X187433754Y-86850000D01*
X187646246Y-86850000D01*
X187856127Y-86816757D01*
X187856130Y-86816757D01*
X188058217Y-86751095D01*
X188247554Y-86654622D01*
X188301716Y-86615270D01*
X188301717Y-86615270D01*
X187669408Y-85982962D01*
X187732993Y-85965925D01*
X187847007Y-85900099D01*
X187940099Y-85807007D01*
X188005925Y-85692993D01*
X188022962Y-85629408D01*
X188655270Y-86261717D01*
X188655270Y-86261716D01*
X188694622Y-86207554D01*
X188791095Y-86018217D01*
X188856757Y-85816130D01*
X188856757Y-85816127D01*
X188890000Y-85606246D01*
X188890000Y-85393753D01*
X188856757Y-85183872D01*
X188856757Y-85183869D01*
X188791095Y-84981782D01*
X188694624Y-84792449D01*
X188655270Y-84738282D01*
X188655269Y-84738282D01*
X188022962Y-85370590D01*
X188005925Y-85307007D01*
X187940099Y-85192993D01*
X187847007Y-85099901D01*
X187732993Y-85034075D01*
X187669409Y-85017037D01*
X188301716Y-84384728D01*
X188247550Y-84345375D01*
X188058217Y-84248904D01*
X187856129Y-84183242D01*
X187646246Y-84150000D01*
X187433754Y-84150000D01*
X187223872Y-84183242D01*
X187223869Y-84183242D01*
X187021782Y-84248904D01*
X186832439Y-84345380D01*
X186778282Y-84384727D01*
X186778282Y-84384728D01*
X187410591Y-85017037D01*
X187347007Y-85034075D01*
X187232993Y-85099901D01*
X187139901Y-85192993D01*
X187074075Y-85307007D01*
X187057037Y-85370591D01*
X186424728Y-84738282D01*
X186383729Y-84741509D01*
X186370118Y-84738649D01*
X186356353Y-84740629D01*
X186336601Y-84731608D01*
X186315352Y-84727145D01*
X186305447Y-84717381D01*
X186292797Y-84711604D01*
X186281057Y-84693337D01*
X186265595Y-84678094D01*
X186261768Y-84663322D01*
X186255023Y-84652826D01*
X186250000Y-84617891D01*
X186250000Y-83500000D01*
X185674500Y-83500000D01*
X185607461Y-83480315D01*
X185561706Y-83427511D01*
X185550500Y-83376000D01*
X185550500Y-77427527D01*
X185550500Y-77427525D01*
X185512984Y-77287515D01*
X185440509Y-77161985D01*
X185338015Y-77059491D01*
X183241205Y-74962681D01*
X183207720Y-74901358D01*
X183212704Y-74831666D01*
X183241205Y-74787319D01*
X183973024Y-74055500D01*
X185190510Y-72838015D01*
X185262984Y-72712485D01*
X185274792Y-72668416D01*
X185300500Y-72572475D01*
X185300500Y-69677525D01*
X185300500Y-69427525D01*
X185300500Y-67128387D01*
X185320185Y-67061348D01*
X185372989Y-67015593D01*
X185442147Y-67005649D01*
X185505703Y-67034674D01*
X185512181Y-67040706D01*
X189161985Y-70690510D01*
X189287515Y-70762984D01*
X189427525Y-70800500D01*
X194470613Y-70800500D01*
X194537652Y-70820185D01*
X194558294Y-70836819D01*
X198663181Y-74941706D01*
X198696666Y-75003029D01*
X198699500Y-75029387D01*
X198699500Y-106470613D01*
X198679815Y-106537652D01*
X198663181Y-106558294D01*
X190308294Y-114913181D01*
X190246971Y-114946666D01*
X190220613Y-114949500D01*
X149374000Y-114949500D01*
X149306961Y-114929815D01*
X149261206Y-114877011D01*
X149250000Y-114825500D01*
X149250000Y-113750000D01*
X145500000Y-113750000D01*
X145500000Y-117365500D01*
X145480315Y-117432539D01*
X145427511Y-117478294D01*
X145376000Y-117489500D01*
X134887525Y-117489500D01*
X134782517Y-117517637D01*
X134747514Y-117527016D01*
X134621986Y-117599489D01*
X134621983Y-117599491D01*
X132308294Y-119913181D01*
X132246971Y-119946666D01*
X132220613Y-119949500D01*
X122374000Y-119949500D01*
X122306961Y-119929815D01*
X122261206Y-119877011D01*
X122250000Y-119825500D01*
X122250000Y-119000000D01*
X118500000Y-119000000D01*
X118500000Y-124905500D01*
X118480315Y-124972539D01*
X118427511Y-125018294D01*
X118376000Y-125029500D01*
X117757525Y-125029500D01*
X117652517Y-125057637D01*
X117617514Y-125067016D01*
X117491986Y-125139489D01*
X117491983Y-125139491D01*
X114559491Y-128071983D01*
X114559489Y-128071986D01*
X114487016Y-128197514D01*
X114487016Y-128197515D01*
X114449500Y-128337525D01*
X114449500Y-128337527D01*
X114449500Y-134970613D01*
X114429815Y-135037652D01*
X114413181Y-135058294D01*
X113507794Y-135963681D01*
X113446471Y-135997166D01*
X113420113Y-136000000D01*
X103079887Y-136000000D01*
X103012848Y-135980315D01*
X102992206Y-135963681D01*
X89086819Y-122058294D01*
X89053334Y-121996971D01*
X89050500Y-121970613D01*
X89050500Y-77029387D01*
X89070185Y-76962348D01*
X89086819Y-76941706D01*
X95366542Y-70661983D01*
X102190510Y-63838015D01*
X102262984Y-63712485D01*
X102270786Y-63683368D01*
X102300500Y-63572475D01*
X102300500Y-56124000D01*
X102320185Y-56056961D01*
X102372989Y-56011206D01*
X102424500Y-56000000D01*
X134981037Y-56000000D01*
X135048076Y-56019685D01*
G37*
%TD.AperFunction*%
%TA.AperFunction,Conductor*%
G36*
X219015677Y-56019685D02*
G01*
X219036319Y-56036319D01*
X225463872Y-62463872D01*
X225497357Y-62525195D01*
X225500190Y-62551090D01*
X225749802Y-129446987D01*
X225730368Y-129514100D01*
X225711815Y-129536770D01*
X221374979Y-133712983D01*
X219213096Y-135794797D01*
X219036014Y-135965320D01*
X218974070Y-135997642D01*
X218950002Y-136000000D01*
X115327887Y-136000000D01*
X115260848Y-135980315D01*
X115215093Y-135927511D01*
X115205149Y-135858353D01*
X115234174Y-135794797D01*
X115240206Y-135788319D01*
X115440510Y-135588015D01*
X115512984Y-135462485D01*
X115514598Y-135456462D01*
X115550500Y-135322475D01*
X115550500Y-128689387D01*
X115570185Y-128622348D01*
X115586819Y-128601706D01*
X118021706Y-126166819D01*
X118083029Y-126133334D01*
X118109387Y-126130500D01*
X118376000Y-126130500D01*
X118443039Y-126150185D01*
X118488794Y-126202989D01*
X118500000Y-126254500D01*
X118500000Y-126750000D01*
X119892485Y-126750000D01*
X119959524Y-126769685D01*
X120005279Y-126822489D01*
X120015223Y-126891647D01*
X119986198Y-126955203D01*
X119948780Y-126984485D01*
X119838564Y-127040643D01*
X119801283Y-127067729D01*
X119801282Y-127067730D01*
X120364058Y-127630504D01*
X120303919Y-127646619D01*
X120188080Y-127713498D01*
X120093498Y-127808080D01*
X120026619Y-127923919D01*
X120010504Y-127984057D01*
X119447730Y-127421282D01*
X119447729Y-127421283D01*
X119420643Y-127458564D01*
X119330457Y-127635562D01*
X119269075Y-127824476D01*
X119269075Y-127824479D01*
X119238000Y-128020678D01*
X119238000Y-128219321D01*
X119269075Y-128415520D01*
X119269075Y-128415523D01*
X119330457Y-128604437D01*
X119420641Y-128781432D01*
X119447730Y-128818715D01*
X119447731Y-128818716D01*
X120010504Y-128255942D01*
X120026619Y-128316081D01*
X120093498Y-128431920D01*
X120188080Y-128526502D01*
X120303919Y-128593381D01*
X120364057Y-128609494D01*
X119801283Y-129172268D01*
X119801283Y-129172269D01*
X119838567Y-129199358D01*
X119968406Y-129265515D01*
X120019202Y-129313490D01*
X120035997Y-129381311D01*
X120013459Y-129447446D01*
X119958744Y-129490897D01*
X119912111Y-129500000D01*
X119000000Y-129500000D01*
X119000000Y-134750000D01*
X122750000Y-134750000D01*
X122750000Y-133874500D01*
X122769685Y-133807461D01*
X122822489Y-133761706D01*
X122874000Y-133750500D01*
X132622472Y-133750500D01*
X132622474Y-133750500D01*
X132622475Y-133750500D01*
X132762485Y-133712984D01*
X132888015Y-133640510D01*
X133191706Y-133336819D01*
X133253029Y-133303334D01*
X133279387Y-133300500D01*
X144376000Y-133300500D01*
X144443039Y-133320185D01*
X144488794Y-133372989D01*
X144500000Y-133424500D01*
X144500000Y-135000000D01*
X150000000Y-135000000D01*
X150000000Y-128250000D01*
X144500000Y-128250000D01*
X144500000Y-129535500D01*
X144480315Y-129602539D01*
X144427511Y-129648294D01*
X144376000Y-129659500D01*
X132467525Y-129659500D01*
X132362517Y-129687637D01*
X132327514Y-129697016D01*
X132201986Y-129769489D01*
X132201983Y-129769491D01*
X131898294Y-130073181D01*
X131836971Y-130106666D01*
X131810613Y-130109500D01*
X122874000Y-130109500D01*
X122806961Y-130089815D01*
X122761206Y-130037011D01*
X122750000Y-129985500D01*
X122750000Y-129500000D01*
X121087889Y-129500000D01*
X121020850Y-129480315D01*
X120975095Y-129427511D01*
X120965151Y-129358353D01*
X120994176Y-129294797D01*
X121031594Y-129265515D01*
X121161425Y-129199362D01*
X121198716Y-129172268D01*
X120635942Y-128609494D01*
X120696081Y-128593381D01*
X120811920Y-128526502D01*
X120906502Y-128431920D01*
X120973381Y-128316081D01*
X120989495Y-128255942D01*
X121552268Y-128818715D01*
X121579362Y-128781425D01*
X121669542Y-128604437D01*
X121730924Y-128415523D01*
X121730924Y-128415520D01*
X121762000Y-128219321D01*
X121762000Y-128020678D01*
X121730924Y-127824479D01*
X121730924Y-127824476D01*
X121669542Y-127635562D01*
X121579358Y-127458567D01*
X121552268Y-127421283D01*
X120989494Y-127984057D01*
X120973381Y-127923919D01*
X120906502Y-127808080D01*
X120811920Y-127713498D01*
X120696081Y-127646619D01*
X120635942Y-127630504D01*
X121198716Y-127067731D01*
X121198715Y-127067730D01*
X121161432Y-127040641D01*
X121051220Y-126984485D01*
X121000424Y-126936510D01*
X120983629Y-126868689D01*
X121006167Y-126802554D01*
X121060882Y-126759103D01*
X121107515Y-126750000D01*
X122250000Y-126750000D01*
X122250000Y-123714500D01*
X122269685Y-123647461D01*
X122322489Y-123601706D01*
X122374000Y-123590500D01*
X133032472Y-123590500D01*
X133032474Y-123590500D01*
X133032475Y-123590500D01*
X133172485Y-123552984D01*
X133298015Y-123480510D01*
X135611706Y-121166819D01*
X135673029Y-121133334D01*
X135699387Y-121130500D01*
X145376000Y-121130500D01*
X145443039Y-121150185D01*
X145488794Y-121202989D01*
X145500000Y-121254500D01*
X145500000Y-121750000D01*
X146457253Y-121750000D01*
X146524292Y-121769685D01*
X146570047Y-121822489D01*
X146579991Y-121891647D01*
X146550966Y-121955203D01*
X146530137Y-121974319D01*
X146488282Y-122004727D01*
X146488282Y-122004728D01*
X147120591Y-122637037D01*
X147057007Y-122654075D01*
X146942993Y-122719901D01*
X146849901Y-122812993D01*
X146784075Y-122927007D01*
X146767037Y-122990591D01*
X146134728Y-122358282D01*
X146134727Y-122358282D01*
X146095380Y-122412439D01*
X145998904Y-122601782D01*
X145933242Y-122803869D01*
X145933242Y-122803872D01*
X145900000Y-123013753D01*
X145900000Y-123226246D01*
X145933242Y-123436127D01*
X145933242Y-123436130D01*
X145998904Y-123638217D01*
X146095375Y-123827550D01*
X146134728Y-123881716D01*
X146767037Y-123249408D01*
X146784075Y-123312993D01*
X146849901Y-123427007D01*
X146942993Y-123520099D01*
X147057007Y-123585925D01*
X147120590Y-123602962D01*
X146451195Y-124272356D01*
X146389872Y-124305841D01*
X146375167Y-124304924D01*
X146375444Y-124307497D01*
X146292626Y-124316401D01*
X146292619Y-124316403D01*
X146157913Y-124366645D01*
X146157906Y-124366649D01*
X146042812Y-124452809D01*
X146042809Y-124452812D01*
X145956649Y-124567906D01*
X145956645Y-124567913D01*
X145906403Y-124702620D01*
X145906401Y-124702627D01*
X145900000Y-124762155D01*
X145900000Y-125410000D01*
X146816988Y-125410000D01*
X146784075Y-125467007D01*
X146750000Y-125594174D01*
X146750000Y-125725826D01*
X146784075Y-125852993D01*
X146816988Y-125910000D01*
X145900000Y-125910000D01*
X145900000Y-126557844D01*
X145906401Y-126617372D01*
X145906403Y-126617379D01*
X145956645Y-126752086D01*
X145956649Y-126752093D01*
X146042809Y-126867187D01*
X146042812Y-126867190D01*
X146157906Y-126953350D01*
X146157913Y-126953354D01*
X146292620Y-127003596D01*
X146292627Y-127003598D01*
X146352155Y-127009999D01*
X146352172Y-127010000D01*
X147000000Y-127010000D01*
X147000000Y-126093012D01*
X147057007Y-126125925D01*
X147184174Y-126160000D01*
X147315826Y-126160000D01*
X147442993Y-126125925D01*
X147500000Y-126093012D01*
X147500000Y-127010000D01*
X148147828Y-127010000D01*
X148147844Y-127009999D01*
X148207372Y-127003598D01*
X148207379Y-127003596D01*
X148342086Y-126953354D01*
X148342093Y-126953350D01*
X148457187Y-126867190D01*
X148457190Y-126867187D01*
X148543350Y-126752093D01*
X148543354Y-126752086D01*
X148593596Y-126617379D01*
X148593598Y-126617372D01*
X148599999Y-126557844D01*
X148600000Y-126557827D01*
X148600000Y-125910000D01*
X147683012Y-125910000D01*
X147715925Y-125852993D01*
X147750000Y-125725826D01*
X147750000Y-125594174D01*
X147715925Y-125467007D01*
X147683012Y-125410000D01*
X148600000Y-125410000D01*
X148600000Y-124762172D01*
X148599999Y-124762155D01*
X148593598Y-124702627D01*
X148593596Y-124702620D01*
X148543354Y-124567913D01*
X148543350Y-124567906D01*
X148457190Y-124452812D01*
X148457187Y-124452809D01*
X148342093Y-124366649D01*
X148342086Y-124366645D01*
X148207380Y-124316403D01*
X148207373Y-124316401D01*
X148124555Y-124307497D01*
X148124884Y-124304431D01*
X148107875Y-124305330D01*
X148048803Y-124272356D01*
X147379408Y-123602962D01*
X147442993Y-123585925D01*
X147557007Y-123520099D01*
X147650099Y-123427007D01*
X147715925Y-123312993D01*
X147732962Y-123249408D01*
X148365270Y-123881717D01*
X148365270Y-123881716D01*
X148404622Y-123827554D01*
X148501095Y-123638217D01*
X148566757Y-123436130D01*
X148566757Y-123436127D01*
X148600000Y-123226246D01*
X148600000Y-123013753D01*
X148566757Y-122803872D01*
X148566757Y-122803869D01*
X148501095Y-122601782D01*
X148404624Y-122412449D01*
X148365270Y-122358282D01*
X148365269Y-122358282D01*
X147732962Y-122990590D01*
X147715925Y-122927007D01*
X147650099Y-122812993D01*
X147557007Y-122719901D01*
X147442993Y-122654075D01*
X147379409Y-122637037D01*
X148011716Y-122004728D01*
X147969861Y-121974319D01*
X147927194Y-121918989D01*
X147921215Y-121849376D01*
X147953820Y-121787581D01*
X148014658Y-121753223D01*
X148042745Y-121750000D01*
X149250000Y-121750000D01*
X149250000Y-116174500D01*
X149269685Y-116107461D01*
X149322489Y-116061706D01*
X149374000Y-116050500D01*
X190572472Y-116050500D01*
X190572474Y-116050500D01*
X190572475Y-116050500D01*
X190712485Y-116012984D01*
X190838015Y-115940510D01*
X199690510Y-107088014D01*
X199762984Y-106962485D01*
X199800500Y-106822475D01*
X199800500Y-74677525D01*
X199762984Y-74537515D01*
X199721420Y-74465524D01*
X199690510Y-74411985D01*
X195088015Y-69809490D01*
X194962485Y-69737016D01*
X194962480Y-69737014D01*
X194913604Y-69723917D01*
X194913604Y-69723918D01*
X194868039Y-69711709D01*
X194822475Y-69699500D01*
X194822474Y-69699500D01*
X189779387Y-69699500D01*
X189712348Y-69679815D01*
X189691706Y-69663181D01*
X185336819Y-65308294D01*
X185303334Y-65246971D01*
X185300500Y-65220613D01*
X185300500Y-62029387D01*
X185320185Y-61962348D01*
X185336819Y-61941706D01*
X186871706Y-60406819D01*
X186933029Y-60373334D01*
X186959387Y-60370500D01*
X189376000Y-60370500D01*
X189443039Y-60390185D01*
X189488794Y-60442989D01*
X189500000Y-60494500D01*
X189500000Y-63500000D01*
X193250000Y-63500000D01*
X193250000Y-58250000D01*
X192707309Y-58250000D01*
X192640270Y-58230315D01*
X192594515Y-58177511D01*
X192584571Y-58108353D01*
X192606991Y-58053115D01*
X192654620Y-57987557D01*
X192751095Y-57798217D01*
X192816757Y-57596130D01*
X192816757Y-57596127D01*
X192850000Y-57386246D01*
X192850000Y-57173753D01*
X192816757Y-56963872D01*
X192816757Y-56963869D01*
X192751095Y-56761782D01*
X192654624Y-56572449D01*
X192615270Y-56518282D01*
X192615269Y-56518282D01*
X191982962Y-57150589D01*
X191965925Y-57087007D01*
X191900099Y-56972993D01*
X191807007Y-56879901D01*
X191692993Y-56814075D01*
X191629409Y-56797037D01*
X192261716Y-56164728D01*
X192259277Y-56133729D01*
X192273641Y-56065352D01*
X192322692Y-56015595D01*
X192382895Y-56000000D01*
X218948638Y-56000000D01*
X219015677Y-56019685D01*
G37*
%TD.AperFunction*%
%TA.AperFunction,Conductor*%
G36*
X105193039Y-72760185D02*
G01*
X105238794Y-72812989D01*
X105250000Y-72864500D01*
X105250000Y-74055500D01*
X105230315Y-74122539D01*
X105177511Y-74168294D01*
X105126000Y-74179500D01*
X103947525Y-74179500D01*
X103872884Y-74199500D01*
X103872883Y-74199499D01*
X103807519Y-74217014D01*
X103807512Y-74217017D01*
X103681989Y-74289487D01*
X103681984Y-74289491D01*
X99559491Y-78411983D01*
X99559489Y-78411985D01*
X99542331Y-78441705D01*
X99508675Y-78500000D01*
X99487016Y-78537515D01*
X99449500Y-78677525D01*
X99449500Y-118427526D01*
X99449500Y-118572474D01*
X99487016Y-118712485D01*
X99559490Y-118838015D01*
X104201986Y-123480510D01*
X104276475Y-123523516D01*
X104327515Y-123552984D01*
X104467525Y-123590500D01*
X104467526Y-123590500D01*
X104612475Y-123590500D01*
X108376000Y-123590500D01*
X108443039Y-123610185D01*
X108488794Y-123662989D01*
X108500000Y-123714500D01*
X108500000Y-126750000D01*
X109732485Y-126750000D01*
X109799524Y-126769685D01*
X109845279Y-126822489D01*
X109855223Y-126891647D01*
X109826198Y-126955203D01*
X109788780Y-126984485D01*
X109678564Y-127040643D01*
X109641283Y-127067729D01*
X109641282Y-127067730D01*
X110204058Y-127630504D01*
X110143919Y-127646619D01*
X110028080Y-127713498D01*
X109933498Y-127808080D01*
X109866619Y-127923919D01*
X109850504Y-127984057D01*
X109287730Y-127421282D01*
X109287729Y-127421283D01*
X109260643Y-127458564D01*
X109170457Y-127635562D01*
X109109075Y-127824476D01*
X109109075Y-127824479D01*
X109078000Y-128020678D01*
X109078000Y-128219321D01*
X109109075Y-128415520D01*
X109109075Y-128415523D01*
X109170457Y-128604437D01*
X109260641Y-128781432D01*
X109287730Y-128818715D01*
X109287731Y-128818716D01*
X109850504Y-128255942D01*
X109866619Y-128316081D01*
X109933498Y-128431920D01*
X110028080Y-128526502D01*
X110143919Y-128593381D01*
X110204057Y-128609494D01*
X109641283Y-129172268D01*
X109641283Y-129172269D01*
X109678567Y-129199358D01*
X109808406Y-129265515D01*
X109859202Y-129313490D01*
X109875997Y-129381311D01*
X109853459Y-129447446D01*
X109798744Y-129490897D01*
X109752111Y-129500000D01*
X108500000Y-129500000D01*
X108500000Y-129985500D01*
X108480315Y-130052539D01*
X108427511Y-130098294D01*
X108376000Y-130109500D01*
X104689387Y-130109500D01*
X104622348Y-130089815D01*
X104601706Y-130073181D01*
X96336819Y-121808294D01*
X96303334Y-121746971D01*
X96300500Y-121720613D01*
X96300500Y-78779386D01*
X96320185Y-78712347D01*
X96336819Y-78691705D01*
X102251705Y-72776819D01*
X102313028Y-72743334D01*
X102339386Y-72740500D01*
X105126000Y-72740500D01*
X105193039Y-72760185D01*
G37*
%TD.AperFunction*%
%TA.AperFunction,Conductor*%
G36*
X175293714Y-56019685D02*
G01*
X175339469Y-56072489D01*
X175349413Y-56141647D01*
X175325051Y-56199486D01*
X175275147Y-56264521D01*
X175275136Y-56264538D01*
X175159132Y-56465461D01*
X175159124Y-56465478D01*
X175070336Y-56679832D01*
X175010286Y-56903946D01*
X175010283Y-56903959D01*
X174980001Y-57133977D01*
X174980000Y-57133994D01*
X174980000Y-57366005D01*
X174980001Y-57366022D01*
X175010283Y-57596040D01*
X175010286Y-57596053D01*
X175070336Y-57820167D01*
X175159124Y-58034521D01*
X175159132Y-58034538D01*
X175275136Y-58235461D01*
X175275142Y-58235469D01*
X175334117Y-58312327D01*
X176267036Y-57379407D01*
X176284075Y-57442993D01*
X176349901Y-57557007D01*
X176442993Y-57650099D01*
X176557007Y-57715925D01*
X176620591Y-57732962D01*
X175687671Y-58665881D01*
X175764530Y-58724857D01*
X175764538Y-58724863D01*
X175965461Y-58840867D01*
X175965478Y-58840875D01*
X176179832Y-58929663D01*
X176403946Y-58989713D01*
X176403959Y-58989716D01*
X176633977Y-59019998D01*
X176633995Y-59020000D01*
X176866005Y-59020000D01*
X176866022Y-59019998D01*
X177096040Y-58989716D01*
X177096053Y-58989713D01*
X177320167Y-58929663D01*
X177534521Y-58840875D01*
X177534538Y-58840867D01*
X177735475Y-58724855D01*
X177812327Y-58665883D01*
X177812327Y-58665880D01*
X176879408Y-57732962D01*
X176942993Y-57715925D01*
X177057007Y-57650099D01*
X177150099Y-57557007D01*
X177215925Y-57442993D01*
X177232962Y-57379409D01*
X178165880Y-58312327D01*
X178165883Y-58312327D01*
X178224855Y-58235475D01*
X178340867Y-58034538D01*
X178340875Y-58034521D01*
X178429663Y-57820167D01*
X178489713Y-57596053D01*
X178489716Y-57596040D01*
X178519998Y-57366022D01*
X178520000Y-57366005D01*
X178520000Y-57133994D01*
X178519998Y-57133977D01*
X178489716Y-56903959D01*
X178489713Y-56903946D01*
X178429663Y-56679832D01*
X178340875Y-56465478D01*
X178340867Y-56465461D01*
X178224863Y-56264538D01*
X178224852Y-56264521D01*
X178174949Y-56199486D01*
X178149755Y-56134317D01*
X178163794Y-56065872D01*
X178212608Y-56015882D01*
X178273325Y-56000000D01*
X190617104Y-56000000D01*
X190684143Y-56019685D01*
X190729898Y-56072489D01*
X190740722Y-56133729D01*
X190738282Y-56164728D01*
X191370591Y-56797037D01*
X191307007Y-56814075D01*
X191192993Y-56879901D01*
X191099901Y-56972993D01*
X191034075Y-57087007D01*
X191017037Y-57150591D01*
X190384728Y-56518282D01*
X190384727Y-56518282D01*
X190345380Y-56572439D01*
X190248904Y-56761782D01*
X190183242Y-56963869D01*
X190183242Y-56963872D01*
X190150000Y-57173753D01*
X190150000Y-57386246D01*
X190183242Y-57596127D01*
X190183242Y-57596130D01*
X190248904Y-57798217D01*
X190345379Y-57987557D01*
X190393009Y-58053115D01*
X190416489Y-58118921D01*
X190400663Y-58186975D01*
X190350558Y-58235670D01*
X190292691Y-58250000D01*
X189500000Y-58250000D01*
X189500000Y-59145500D01*
X189480315Y-59212539D01*
X189427511Y-59258294D01*
X189376000Y-59269500D01*
X186607525Y-59269500D01*
X186502517Y-59297637D01*
X186467514Y-59307016D01*
X186341986Y-59379489D01*
X186341983Y-59379491D01*
X184309491Y-61411983D01*
X184309489Y-61411986D01*
X184237016Y-61537514D01*
X184237016Y-61537515D01*
X184199500Y-61677525D01*
X184199500Y-61677527D01*
X184199500Y-72220613D01*
X184179815Y-72287652D01*
X184163181Y-72308294D01*
X182028294Y-74443181D01*
X181966971Y-74476666D01*
X181940613Y-74479500D01*
X178874000Y-74479500D01*
X178806961Y-74459815D01*
X178761206Y-74407011D01*
X178750000Y-74355500D01*
X178750000Y-72750000D01*
X175000000Y-72750000D01*
X175000000Y-78000000D01*
X178750000Y-78000000D01*
X178750000Y-75704500D01*
X178769685Y-75637461D01*
X178822489Y-75591706D01*
X178874000Y-75580500D01*
X182147525Y-75580500D01*
X182147526Y-75580500D01*
X182250613Y-75580500D01*
X182317652Y-75600185D01*
X182338294Y-75616819D01*
X184413181Y-77691705D01*
X184446666Y-77753028D01*
X184449500Y-77779386D01*
X184449500Y-83376000D01*
X184429815Y-83443039D01*
X184377011Y-83488794D01*
X184325500Y-83500000D01*
X181000000Y-83500000D01*
X181000000Y-84825500D01*
X180980315Y-84892539D01*
X180927511Y-84938294D01*
X180876000Y-84949500D01*
X172177525Y-84949500D01*
X172072517Y-84977637D01*
X172037514Y-84987016D01*
X171911986Y-85059489D01*
X171911983Y-85059491D01*
X163558294Y-93413181D01*
X163496971Y-93446666D01*
X163470613Y-93449500D01*
X152279387Y-93449500D01*
X152212348Y-93429815D01*
X152191706Y-93413181D01*
X150588016Y-91809491D01*
X150588015Y-91809490D01*
X150462485Y-91737016D01*
X150462486Y-91737016D01*
X150427482Y-91727637D01*
X150322475Y-91699500D01*
X132927525Y-91699500D01*
X132822517Y-91727637D01*
X132787514Y-91737016D01*
X132661986Y-91809489D01*
X132661983Y-91809491D01*
X130008294Y-94463181D01*
X129946971Y-94496666D01*
X129920613Y-94499500D01*
X126874000Y-94499500D01*
X126806961Y-94479815D01*
X126761206Y-94427011D01*
X126750000Y-94375500D01*
X126750000Y-83024500D01*
X126769685Y-82957461D01*
X126822489Y-82911706D01*
X126874000Y-82900500D01*
X129820613Y-82900500D01*
X129887652Y-82920185D01*
X129908294Y-82936819D01*
X132411985Y-85440510D01*
X132411986Y-85440511D01*
X132411988Y-85440512D01*
X132524162Y-85505275D01*
X132524164Y-85505276D01*
X132537515Y-85512984D01*
X132677525Y-85550500D01*
X132677526Y-85550500D01*
X132822474Y-85550500D01*
X137626000Y-85550500D01*
X137693039Y-85570185D01*
X137738794Y-85622989D01*
X137750000Y-85674500D01*
X137750000Y-87500000D01*
X151500000Y-87500000D01*
X151500000Y-85674500D01*
X151519685Y-85607461D01*
X151572489Y-85561706D01*
X151624000Y-85550500D01*
X152220613Y-85550500D01*
X152287652Y-85570185D01*
X152308294Y-85586819D01*
X153413181Y-86691706D01*
X153446666Y-86753029D01*
X153449500Y-86779387D01*
X153449500Y-89822474D01*
X153469222Y-89896081D01*
X153487014Y-89962480D01*
X153487016Y-89962485D01*
X153559490Y-90088015D01*
X154661986Y-91190510D01*
X154661988Y-91190511D01*
X154661992Y-91190514D01*
X154672426Y-91196538D01*
X154672429Y-91196539D01*
X154672434Y-91196542D01*
X154787515Y-91262984D01*
X154927525Y-91300500D01*
X154927526Y-91300500D01*
X155072475Y-91300500D01*
X157376000Y-91300500D01*
X157443039Y-91320185D01*
X157488794Y-91372989D01*
X157500000Y-91424500D01*
X157500000Y-92750000D01*
X161250000Y-92750000D01*
X161250000Y-89500000D01*
X160716779Y-89500000D01*
X160649740Y-89480315D01*
X160603985Y-89427511D01*
X160594041Y-89358353D01*
X160600597Y-89332667D01*
X160643596Y-89217379D01*
X160643598Y-89217372D01*
X160649999Y-89157844D01*
X160650000Y-89157827D01*
X160650000Y-88460000D01*
X159625278Y-88460000D01*
X159669333Y-88383694D01*
X159700000Y-88269244D01*
X159700000Y-88150756D01*
X159669333Y-88036306D01*
X159625278Y-87960000D01*
X160650000Y-87960000D01*
X160650000Y-87262172D01*
X160649999Y-87262155D01*
X160643598Y-87202627D01*
X160643596Y-87202620D01*
X160593354Y-87067913D01*
X160593350Y-87067906D01*
X160507190Y-86952812D01*
X160507187Y-86952809D01*
X160392093Y-86866649D01*
X160392086Y-86866645D01*
X160257379Y-86816403D01*
X160257372Y-86816401D01*
X160197844Y-86810000D01*
X159500000Y-86810000D01*
X159500000Y-87834722D01*
X159423694Y-87790667D01*
X159309244Y-87760000D01*
X159190756Y-87760000D01*
X159076306Y-87790667D01*
X159000000Y-87834722D01*
X159000000Y-86810000D01*
X158302155Y-86810000D01*
X158242627Y-86816401D01*
X158242620Y-86816403D01*
X158107913Y-86866645D01*
X158107906Y-86866649D01*
X157992812Y-86952809D01*
X157992809Y-86952812D01*
X157906649Y-87067906D01*
X157906645Y-87067913D01*
X157856403Y-87202620D01*
X157856401Y-87202627D01*
X157850000Y-87262155D01*
X157850000Y-87960000D01*
X158874722Y-87960000D01*
X158830667Y-88036306D01*
X158800000Y-88150756D01*
X158800000Y-88269244D01*
X158830667Y-88383694D01*
X158874722Y-88460000D01*
X157850000Y-88460000D01*
X157850000Y-89157844D01*
X157856401Y-89217372D01*
X157856403Y-89217379D01*
X157899403Y-89332667D01*
X157904387Y-89402358D01*
X157870902Y-89463681D01*
X157809579Y-89497166D01*
X157783221Y-89500000D01*
X157500000Y-89500000D01*
X157500000Y-90075500D01*
X157480315Y-90142539D01*
X157427511Y-90188294D01*
X157376000Y-90199500D01*
X155279386Y-90199500D01*
X155212347Y-90179815D01*
X155191705Y-90163181D01*
X154586819Y-89558294D01*
X154553334Y-89496971D01*
X154550500Y-89470613D01*
X154550500Y-86427527D01*
X154550500Y-86427525D01*
X154512984Y-86287515D01*
X154440510Y-86161985D01*
X152838015Y-84559490D01*
X152712485Y-84487016D01*
X152712486Y-84487016D01*
X152615889Y-84461133D01*
X152615889Y-84461132D01*
X152572475Y-84449500D01*
X151624000Y-84449500D01*
X151556961Y-84429815D01*
X151511206Y-84377011D01*
X151500000Y-84325500D01*
X151500000Y-81674500D01*
X151519685Y-81607461D01*
X151572489Y-81561706D01*
X151624000Y-81550500D01*
X157126000Y-81550500D01*
X157193039Y-81570185D01*
X157238794Y-81622989D01*
X157250000Y-81674500D01*
X157250000Y-82250000D01*
X157783221Y-82250000D01*
X157850260Y-82269685D01*
X157896015Y-82322489D01*
X157905959Y-82391647D01*
X157899403Y-82417333D01*
X157856403Y-82532620D01*
X157856401Y-82532627D01*
X157850000Y-82592155D01*
X157850000Y-83290000D01*
X158874722Y-83290000D01*
X158830667Y-83366306D01*
X158800000Y-83480756D01*
X158800000Y-83599244D01*
X158830667Y-83713694D01*
X158874722Y-83790000D01*
X157850000Y-83790000D01*
X157850000Y-84487844D01*
X157856401Y-84547372D01*
X157856403Y-84547379D01*
X157906645Y-84682086D01*
X157906649Y-84682093D01*
X157992809Y-84797187D01*
X157992812Y-84797190D01*
X158107906Y-84883350D01*
X158107913Y-84883354D01*
X158242620Y-84933596D01*
X158242627Y-84933598D01*
X158302155Y-84939999D01*
X158302172Y-84940000D01*
X159000000Y-84940000D01*
X159000000Y-83915277D01*
X159076306Y-83959333D01*
X159190756Y-83990000D01*
X159309244Y-83990000D01*
X159423694Y-83959333D01*
X159500000Y-83915277D01*
X159500000Y-84940000D01*
X160197828Y-84940000D01*
X160197844Y-84939999D01*
X160257372Y-84933598D01*
X160257379Y-84933596D01*
X160392086Y-84883354D01*
X160392093Y-84883350D01*
X160507187Y-84797190D01*
X160507190Y-84797187D01*
X160593350Y-84682093D01*
X160593354Y-84682086D01*
X160643596Y-84547379D01*
X160643598Y-84547372D01*
X160649999Y-84487844D01*
X160650000Y-84487827D01*
X160650000Y-83790000D01*
X159625278Y-83790000D01*
X159669333Y-83713694D01*
X159700000Y-83599244D01*
X159700000Y-83480756D01*
X159669333Y-83366306D01*
X159625278Y-83290000D01*
X160650000Y-83290000D01*
X160650000Y-82592172D01*
X160649999Y-82592155D01*
X160643598Y-82532627D01*
X160643596Y-82532620D01*
X160600597Y-82417333D01*
X160595613Y-82347642D01*
X160629098Y-82286319D01*
X160690421Y-82252834D01*
X160716779Y-82250000D01*
X161000000Y-82250000D01*
X161000000Y-79250000D01*
X157250000Y-79250000D01*
X157250000Y-80325500D01*
X157230315Y-80392539D01*
X157177511Y-80438294D01*
X157126000Y-80449500D01*
X151624000Y-80449500D01*
X151556961Y-80429815D01*
X151511206Y-80377011D01*
X151500000Y-80325500D01*
X151500000Y-78500000D01*
X137750000Y-78500000D01*
X137750000Y-80325500D01*
X137730315Y-80392539D01*
X137677511Y-80438294D01*
X137626000Y-80449500D01*
X134279386Y-80449500D01*
X134212347Y-80429815D01*
X134191705Y-80413181D01*
X130608016Y-76829491D01*
X130608015Y-76829490D01*
X130482485Y-76757016D01*
X130482486Y-76757016D01*
X130447482Y-76747637D01*
X130342475Y-76719500D01*
X130342472Y-76719500D01*
X126624000Y-76719500D01*
X126556961Y-76699815D01*
X126511206Y-76647011D01*
X126500000Y-76595500D01*
X126500000Y-68250000D01*
X125248685Y-68250000D01*
X125181646Y-68230315D01*
X125135891Y-68177511D01*
X125125947Y-68108353D01*
X125154972Y-68044797D01*
X125201231Y-68011440D01*
X125204516Y-68010078D01*
X125207584Y-68008808D01*
X125243112Y-67989818D01*
X125374140Y-67902268D01*
X125405280Y-67876711D01*
X125516711Y-67765280D01*
X125542268Y-67734140D01*
X125629818Y-67603112D01*
X125648808Y-67567584D01*
X125709114Y-67421993D01*
X125720808Y-67383441D01*
X125751551Y-67228883D01*
X125755500Y-67188793D01*
X125755500Y-67031207D01*
X125751551Y-66991117D01*
X125720808Y-66836559D01*
X125709114Y-66798007D01*
X125648808Y-66652416D01*
X125629818Y-66616888D01*
X125571352Y-66529387D01*
X125542274Y-66485868D01*
X125542270Y-66485863D01*
X125535837Y-66478025D01*
X125516711Y-66454720D01*
X125405280Y-66343289D01*
X125374140Y-66317732D01*
X125374136Y-66317729D01*
X125374131Y-66317725D01*
X125240582Y-66228491D01*
X125241043Y-66227800D01*
X125196020Y-66179001D01*
X125183927Y-66110185D01*
X125210958Y-66045756D01*
X125268530Y-66006169D01*
X125307155Y-66000000D01*
X126750000Y-66000000D01*
X126750000Y-65244500D01*
X126769685Y-65177461D01*
X126822489Y-65131706D01*
X126874000Y-65120500D01*
X128540613Y-65120500D01*
X128607652Y-65140185D01*
X128628294Y-65156819D01*
X129913181Y-66441706D01*
X129946666Y-66503029D01*
X129949500Y-66529387D01*
X129949500Y-73177526D01*
X129949500Y-73322474D01*
X129987016Y-73462485D01*
X130059490Y-73588015D01*
X131941985Y-75470510D01*
X132067515Y-75542984D01*
X132207525Y-75580500D01*
X134126000Y-75580500D01*
X134193039Y-75600185D01*
X134238794Y-75652989D01*
X134250000Y-75704500D01*
X134250000Y-77750000D01*
X138000000Y-77750000D01*
X138000000Y-75704500D01*
X138019685Y-75637461D01*
X138072489Y-75591706D01*
X138124000Y-75580500D01*
X142542472Y-75580500D01*
X142542474Y-75580500D01*
X142542475Y-75580500D01*
X142682485Y-75542984D01*
X142808015Y-75470510D01*
X146940510Y-71338014D01*
X147012984Y-71212485D01*
X147050500Y-71072474D01*
X147050500Y-70927526D01*
X147050500Y-70927525D01*
X147050500Y-59177525D01*
X147012984Y-59037515D01*
X146962603Y-58950252D01*
X146940510Y-58911985D01*
X144240206Y-56211681D01*
X144206721Y-56150358D01*
X144211705Y-56080666D01*
X144253577Y-56024733D01*
X144319041Y-56000316D01*
X144327887Y-56000000D01*
X175226675Y-56000000D01*
X175293714Y-56019685D01*
G37*
%TD.AperFunction*%
%TD*%
M02*
