M48
; DRILL file {KiCad 9.0.5} date 2026-05-29T15:52:38-0300
; FORMAT={-:-/ absolute / metric / decimal}
; #@! TF.CreationDate,2026-05-29T15:52:38-03:00
; #@! TF.GenerationSoftware,Kicad,Pcbnew,9.0.5
; #@! TF.FileFunction,Plated,1,2,PTH
FMAT,2
METRIC
; #@! TA.AperFunction,Plated,PTH,ComponentDrill
T1C0.800
; #@! TA.AperFunction,Plated,PTH,ComponentDrill
T2C0.900
; #@! TA.AperFunction,Plated,PTH,ComponentDrill
T3C1.000
; #@! TA.AperFunction,Plated,PTH,ComponentDrill
T4C1.016
%
G90
G05
T1
X151.71Y-84.64
X151.73Y-89.7
X161.87Y-84.64
X161.89Y-89.7
T2
X169.98Y-83.47
X169.98Y-86.01
X169.98Y-88.555
X169.98Y-91.095
T3
X121.7Y-69.39
X121.7Y-71.93
X121.7Y-74.47
X121.7Y-77.01
X121.7Y-79.55
X121.7Y-82.09
X121.7Y-84.63
X121.7Y-87.17
X121.7Y-89.71
X121.7Y-92.25
X121.7Y-94.79
X121.7Y-97.33
X121.7Y-99.87
X121.7Y-102.41
X121.7Y-104.95
X121.7Y-107.49
X121.7Y-110.03
X121.7Y-112.57
X121.7Y-115.11
X121.7Y-117.65
X139.48Y-69.39
X139.48Y-71.93
X139.48Y-74.47
X139.48Y-77.01
X139.48Y-79.55
X139.48Y-82.09
X139.48Y-84.63
X139.48Y-87.17
X139.48Y-89.71
X139.48Y-92.25
X139.48Y-94.79
X139.48Y-97.33
X139.48Y-99.87
X139.48Y-102.41
X139.48Y-104.95
X139.48Y-107.49
X139.48Y-110.03
X139.48Y-112.57
X139.48Y-115.11
X139.48Y-117.65
X155.652Y-105.022
X155.652Y-107.562
X155.652Y-110.102
X155.652Y-112.642
X155.73Y-122.89
X155.73Y-125.43
X155.73Y-127.97
X155.73Y-130.51
X155.73Y-133.05
X155.73Y-135.59
X155.73Y-138.13
X184.379Y-128.39
X184.379Y-130.93
X184.608Y-110.102
X184.608Y-112.642
X184.608Y-115.182
X194.59Y-71.94
X194.59Y-112.58
X212.37Y-71.94
X212.37Y-112.58
T4
X124.9Y-125.41
X124.9Y-127.95
X124.9Y-130.49
X124.9Y-133.03
X124.9Y-135.57
X124.9Y-138.11
X135.06Y-125.41
X135.06Y-127.95
X135.06Y-130.49
X135.06Y-133.03
X135.06Y-135.57
X135.06Y-138.11
M30
